<?xml version="1.0" encoding="UTF-8"?>
<svg width="1200pt" height="1200pt" version="1.1" viewBox="0 0 1200 1200" xmlns="http://www.w3.org/2000/svg">
 <g>
  <path d="m386.67 453.33h426.67c14.668 0 26.668-12 26.668-26.668 0-14.668-12-26.668-26.668-26.668l-426.67 0.003906c-14.668 0-26.668 12-26.668 26.668 0 14.664 12 26.664 26.668 26.664z"/>
  <path d="m813.33 573.33h-426.66c-14.668 0-26.668 12-26.668 26.668s12 26.668 26.668 26.668h426.67c14.668 0 26.668-12 26.668-26.668-0.003906-14.668-12.004-26.668-26.672-26.668z"/>
  <path d="m813.33 746.67h-426.66c-14.668 0-26.668 12-26.668 26.668 0 14.668 12 26.668 26.668 26.668h426.67c14.668 0 26.668-12 26.668-26.668-0.003906-14.668-12.004-26.668-26.672-26.668z"/>
 </g>
</svg>
